<?xml version="1.0" standalone="no"?>
<!DOCTYPE svg PUBLIC "-//W3C//DTD SVG 20010904//EN"
 "http://www.w3.org/TR/2001/REC-SVG-20010904/DTD/svg10.dtd">
<svg version="1.0" xmlns="http://www.w3.org/2000/svg"
 width="300.000000pt" height="200.000000pt" viewBox="0 0 300.000000 200.000000"
 preserveAspectRatio="xMidYMid meet">
<metadata>
Created by potrace 1.13, written by Peter Selinger 2001-2015
</metadata>
<g transform="translate(0.000000,200.000000) scale(0.100000,-0.100000)"
fill="#000000" stroke="none">
<path fill="#6dbcdb"  d="M546 1528 c-16 -23 -7 -54 20 -65 20 -7 64 24 64 45 0 43 -58 57 -84
20z"/>
<path fill="#6dbcdb" d="M244 1501 c-48 -12 -104 -50 -125 -85 -41 -67 -13 -122 79 -156 114
-41 133 -52 130 -73 -2 -12 -21 -30 -48 -44 -38 -20 -56 -23 -118 -20 -64 4
-74 2 -83 -15 -30 -56 87 -78 196 -37 71 26 135 85 135 123 0 42 -46 78 -134
106 -90 28 -114 49 -99 83 14 30 77 61 126 61 29 0 43 -5 57 -24 16 -20 22
-23 37 -14 26 16 28 57 3 79 -23 21 -105 29 -156 16z"/>
<path fill="#6dbcdb"  d="M1272 1393 c-5 -10 -13 -70 -16 -133 -4 -63 -15 -153 -23 -200 -9
-47 -17 -107 -17 -135 -1 -47 1 -50 26 -53 30 -4 32 0 43 93 14 118 12 113 60
107 134 -15 287 217 200 303 -42 43 -99 29 -164 -39 -44 -45 -55 -45 -47 -1 4
19 2 44 -4 55 -13 25 -46 26 -58 3z m218 -102 c0 -48 -50 -127 -98 -155 -33
-18 -34 -18 -52 0 -19 19 -19 20 -1 60 25 55 101 134 129 134 19 0 22 -6 22
-39z"/>
<path fill="#6dbcdb"  d="M672 1391 c-10 -6 -15 -50 -19 -157 -5 -130 -4 -151 10 -163 25 -20
43 -8 70 52 30 67 94 167 105 167 5 0 12 -37 15 -81 5 -56 12 -88 23 -100 38
-42 73 -14 129 104 20 42 42 77 49 77 9 0 16 -23 20 -66 12 -115 45 -161 96
-134 20 11 29 50 11 50 -13 0 -29 53 -40 134 -11 75 -31 106 -68 106 -32 0
-65 -35 -102 -108 -42 -83 -51 -85 -51 -12 0 155 -87 160 -171 10 l-31 -55 6
73 c8 95 -10 130 -52 103z"/>
<path fill="#6dbcdb"  d="M513 1368 c-12 -16 -43 -199 -43 -249 0 -42 20 -64 50 -54 22 7 22 6
21 90 -1 33 7 91 18 128 16 59 17 70 4 82 -18 18 -37 19 -50 3z"/>
<path fill="#f8f7f9"  d="M1852 879 c-101 -50 -202 -199 -202 -298 0 -28 5 -62 12 -76 13 -28
58 -59 101 -69 79 -19 260 86 206 119 -6 4 -36 -7 -68 -24 -111 -59 -181 -36
-181 57 0 88 144 262 215 262 13 0 16 -9 15 -37 -3 -59 -1 -63 23 -63 54 0 75
74 36 124 -17 21 -29 26 -67 26 -28 0 -65 -9 -90 -21z"/>
<path fill="#f8f7f9"  d="M1424 881 c-48 -12 -104 -50 -125 -85 -41 -67 -13 -122 79 -156 114
-41 133 -52 130 -73 -2 -12 -21 -30 -48 -44 -38 -20 -56 -23 -118 -20 -64 4
-74 2 -83 -15 -30 -56 87 -78 196 -37 71 26 135 85 135 123 0 41 -46 77 -131
105 -80 25 -109 44 -109 72 0 35 107 87 152 74 13 -4 31 -17 40 -29 14 -17 21
-19 35 -10 26 16 28 56 5 78 -23 20 -110 29 -158 17z"/>
<path fill="#f8f7f9"  d="M2901 876 c-7 -8 -23 -78 -36 -156 -14 -78 -28 -146 -31 -152 -11
-17 -123 160 -147 234 -8 23 -24 48 -35 56 -31 21 -62 -14 -62 -71 0 -23 -14
-104 -30 -180 -32 -145 -30 -177 10 -177 26 0 36 23 44 100 4 36 13 92 20 125
l12 59 17 -24 c10 -14 51 -73 92 -131 41 -59 81 -109 87 -112 7 -2 23 -1 36 4
17 6 22 16 22 41 0 32 25 181 51 305 10 50 10 64 0 77 -17 20 -35 20 -50 2z"/>
<path fill="#f8f7f9"  d="M2249 863 c-15 -17 -99 -161 -99 -169 0 -2 -29 -49 -65 -106 -36 -56
-64 -107 -62 -112 6 -17 34 -29 51 -23 9 4 28 26 42 49 26 43 27 44 116 61 50
10 94 15 99 10 4 -4 21 -33 36 -63 32 -60 65 -85 95 -69 26 14 23 33 -13 82
-17 23 -37 58 -46 77 -34 80 -75 198 -81 235 -6 33 -12 41 -33 43 -15 2 -31
-4 -40 -15z m45 -167 c9 -27 16 -51 16 -52 0 -6 -111 -27 -116 -21 -4 4 19 54
63 130 8 14 19 -4 37 -57z"/>
</g>
</svg>
